<svg width="56" height="56" viewBox="0 0 56 56" fill="none" xmlns="http://www.w3.org/2000/svg">
<path d="M28 48C39.0457 48 48 39.0457 48 28C48 16.9543 39.0457 8 28 8C16.9543 8 8 16.9543 8 28C8 39.0457 16.9543 48 28 48Z" stroke="#1D293F" stroke-width="2" stroke-miterlimit="10" stroke-linecap="round" stroke-linejoin="round"/>
<path d="M22.887 21.797C23.2954 20.6348 24.1021 19.6547 25.1641 19.0303C26.226 18.406 27.4747 18.1778 28.6889 18.3862C29.903 18.5945 31.0042 19.2259 31.7974 20.1685C32.5905 21.1111 33.0243 22.3041 33.022 23.536C33.022 27.013 27.807 28.751 27.807 28.751" stroke="#1D293F" stroke-width="2" stroke-miterlimit="10" stroke-linecap="round" stroke-linejoin="round"/>
<path d="M27.949 38.1318H27.966" stroke="#1D293F" stroke-width="2" stroke-miterlimit="10" stroke-linecap="round" stroke-linejoin="round"/>
</svg>
