<svg width="33" height="32" viewBox="0 0 33 32" fill="none" xmlns="http://www.w3.org/2000/svg">
<path d="M1.00049 0H33.0005V32H1.00049V0Z" fill="white"/>
<path d="M31.7234 6.36602L11.2404 2.03102C10.8227 1.94383 10.3874 2.02552 10.0297 2.25824C9.672 2.49096 9.42095 2.85579 9.33139 3.27302L8.94238 5.77302L32.5764 10.773L32.9654 8.27302C33.052 7.85558 32.97 7.42083 32.7374 7.06359C32.5047 6.70635 32.1402 6.4556 31.7234 6.36602Z" fill="#1D293F"/>
<path d="M23.4954 10.022C23.4468 9.82078 23.3583 9.63135 23.2352 9.46487C23.1121 9.2984 22.9569 9.15827 22.7788 9.05275C22.6007 8.94723 22.4032 8.87847 22.1981 8.85052C21.9929 8.82258 21.7843 8.83601 21.5844 8.89003L17.8704 9.97003L9.11542 8.03003L8.15242 12.793L2.13642 14.541C1.73286 14.6703 1.39497 14.9507 1.19347 15.3235C0.991979 15.6963 0.942509 16.1326 1.05542 16.541L4.44542 29.333C4.49408 29.5343 4.58256 29.7237 4.70564 29.8902C4.82872 30.0567 4.98391 30.1968 5.16204 30.3023C5.34016 30.4078 5.53762 30.4766 5.74276 30.5045C5.9479 30.5325 6.15656 30.519 6.35642 30.465L25.8004 24.815C26.204 24.6857 26.5419 24.4053 26.7434 24.0325C26.9449 23.6598 26.9943 23.2235 26.8814 22.815L26.2994 20.615L28.4804 21.098C28.6819 21.1384 28.8893 21.1381 29.0906 21.0972C29.292 21.0564 29.4831 20.9757 29.6529 20.8601C29.8227 20.7444 29.9677 20.596 30.0794 20.4236C30.1911 20.2512 30.2672 20.0582 30.3034 19.856L31.6834 13.029L23.8274 11.288L23.4954 10.022ZM25.7414 16.522L26.2224 14.142C26.2374 14.0589 26.2688 13.9795 26.3148 13.9087C26.3608 13.8378 26.4204 13.7768 26.4902 13.7292C26.5601 13.6816 26.6387 13.6484 26.7214 13.6316C26.8042 13.6147 26.8896 13.6145 26.9724 13.631L29.2454 14.131C29.4127 14.1731 29.5571 14.2784 29.6481 14.4249C29.7392 14.5713 29.7697 14.7474 29.7334 14.916L29.2524 17.296C29.2374 17.3792 29.206 17.4585 29.1601 17.5294C29.1141 17.6003 29.0544 17.6613 28.9846 17.7088C28.9148 17.7564 28.8362 17.7896 28.7534 17.8065C28.6706 17.8233 28.5853 17.8235 28.5024 17.807L26.2294 17.307C26.0626 17.265 25.9185 17.1599 25.8275 17.0139C25.7365 16.8679 25.7057 16.6923 25.7414 16.524V16.522ZM2.47642 15.816L7.85842 14.253L20.5584 10.563L21.9244 10.163C21.9485 10.1563 21.9734 10.1529 21.9984 10.153C22.0623 10.1552 22.1238 10.1777 22.174 10.2173C22.2242 10.2569 22.2604 10.3114 22.2774 10.373L22.4374 10.973L22.9374 12.873L2.93742 18.684L2.27442 16.184C2.25559 16.1089 2.26584 16.0295 2.30311 15.9616C2.34039 15.8937 2.40193 15.8424 2.47542 15.818L2.47642 15.816ZM25.6664 23.166C25.6869 23.2428 25.6769 23.3245 25.6384 23.394C25.6211 23.4282 25.597 23.4585 25.5676 23.4831C25.5382 23.5076 25.5041 23.526 25.4674 23.537L6.01942 29.189C5.99538 29.1961 5.97048 29.1998 5.94542 29.2C5.88155 29.1979 5.82003 29.1753 5.76985 29.1358C5.71966 29.0962 5.68343 29.0416 5.66642 28.98L3.68942 21.519L23.6894 15.708L24.9094 20.308L25.6664 23.166Z" fill="#1D293F"/>
<path d="M9.54659 23.679C9.49899 23.51 9.38647 23.3667 9.2336 23.2803C9.08073 23.194 8.89991 23.1716 8.73059 23.218L6.35259 23.878C6.18344 23.9254 6.03996 24.0379 5.95356 24.1908C5.86716 24.3437 5.84487 24.5247 5.89159 24.694L6.55159 27.072C6.59897 27.2412 6.71144 27.3846 6.86438 27.471C7.01732 27.5575 7.19826 27.5797 7.36759 27.533L9.74559 26.873C9.91459 26.8254 10.0579 26.7129 10.1443 26.56C10.2306 26.4072 10.253 26.2263 10.2066 26.057L9.54659 23.679Z" fill="#1D293F"/>
</svg>
