<svg width="56" height="56" viewBox="0 0 56 56" fill="none" xmlns="http://www.w3.org/2000/svg">
<path d="M7 44V29.1996C7 16.939 16.6259 7 28.5 7C40.3741 7 50 16.939 50 29.1996V44" stroke="#28B0A6" stroke-width="2" stroke-miterlimit="10" stroke-linecap="round" stroke-linejoin="round"/>
<path d="M45.2222 50H42.8333C40.1991 50 38.0556 48.2057 38.0556 46.0004V39.9996C38.0556 37.7943 40.1991 36 42.8333 36H50V45.9994C50.001 48.2057 47.8574 50 45.2222 50ZM14.1667 50H11.7778C9.14357 50 7 48.2057 7 45.9994V36H14.1667C16.8009 36 18.9444 37.7943 18.9444 39.9996V45.9994C18.9455 48.2057 16.8019 50 14.1667 50V50Z" stroke="#28B0A6" stroke-width="2" stroke-miterlimit="10" stroke-linecap="round" stroke-linejoin="round"/>
</svg>
