<svg width="25" height="28" viewBox="0 0 25 28" fill="none" xmlns="http://www.w3.org/2000/svg">
<path d="M2.07733 27.9999C1.52984 28.0047 1.00112 27.7883 0.611606 27.3954C0.222105 27.004 0.00156175 26.4695 0 25.9128V2.08863C0 1.34731 0.38637 0.660077 1.01678 0.286222C1.64561 -0.089214 2.4246 -0.0955751 3.05971 0.268723L23.9519 12.1808C24.5996 12.5499 25 13.2466 25 14.0007C25 14.7548 24.5996 15.4515 23.9519 15.8206L3.08494 27.7327C2.77678 27.9093 2.43109 27.9999 2.07757 27.9999L2.07733 27.9999ZM2.07733 1.27413C1.93342 1.27413 1.7942 1.3139 1.67063 1.38867C1.4141 1.52548 1.25297 1.79433 1.2514 2.08865V25.9128C1.24984 26.2039 1.40157 26.4727 1.64716 26.6191C1.89275 26.7655 2.19778 26.7686 2.4465 26.6255L23.3387 14.7134C23.5906 14.5686 23.747 14.2982 23.747 14.0039C23.747 13.7096 23.5906 13.4392 23.3387 13.2944L2.47172 1.37581C2.35128 1.3074 2.21519 1.2724 2.07753 1.274L2.07733 1.27413Z" fill="#E9ECEF"/>
</svg>
